# xmcd
#
# Track frame offsets:
#	150
#	13958
#	26153
#	31786
#	46501
#	56274
#	64967
#	78445
#	85765
#	96175
#	107688
#
# Disc length: 1625 seconds
#
# Revision: 1
# Processed by: cddbd v1.5.2PL0 Copyright (c) Steve Scherf et al.
# Submitted via: audiograbber 1.83.01
#
DISCID=7e06570b
DTITLE=Marty Robbins - Christmas With Marty Robbins
DYEAR=1967
DGENRE=Country
TTITLE0=O Little Town Of Bethlehem
TTITLE1=Christmas Is For Kids
TTITLE2=Christmas Time Is Here Again
TTITLE3=Many Christmases Ago
TTITLE4=The Joy Of Christmas
TTITLE5=Little Stranger (In The Manger)
TTITLE6=Hark! The Herald Angles Sing
TTITLE7=One Of You (In Every Size)
TTITLE8=Christmas Kisses
TTITLE9=Merry Christmas To You From Me
TTITLE10=A Christmas Prayer
EXTD=
EXTT0=
EXTT1=
EXTT2=
EXTT3=
EXTT4=
EXTT5=
EXTT6=
EXTT7=
EXTT8=
EXTT9=
EXTT10=
PLAYORDER=
